<svg xmlns="http://www.w3.org/2000/svg" viewBox="0 0 720 180" role="img" aria-labelledby="title desc">
  <title id="title">Kaffekontoret</title>
  <desc id="desc">Kaffekassans digitala kontor</desc>
  <g transform="translate(14 15)">
    <rect width="150" height="150" rx="44" fill="#EAFACF"/>
    <path d="M34 64h70v34c0 27-16 43-35 43S34 125 34 98V64Z" fill="#1B3730"/>
    <path d="M104 72h10c27 0 27 38 3 43-4 1-8 1-13 1" fill="none" stroke="#1B3730" stroke-width="12" stroke-linecap="round"/>
    <path d="M51 49c-8-10 7-13 0-25M72 49c-8-10 7-13 0-25M93 49c-8-10 7-13 0-25" fill="none" stroke="#1B3730" stroke-width="7" stroke-linecap="round"/>
  </g>
  <text x="192" y="96" fill="#FAF0E5" font-family="Made Sunflower, Verdana, sans-serif" font-size="62">Kaffekontoret</text>
  <text x="196" y="132" fill="#EAFACF" font-family="Verdana, sans-serif" font-size="18" letter-spacing="2">ETT LEKFULLT KONTOR FRÅN KAFFEKASSAN</text>
</svg>
